<mxfile host="app.diagrams.net" agent="Mozilla/5.0 (Macintosh; Intel Mac OS X 10_15_7) AppleWebKit/537.36 (KHTML, like Gecko) Chrome/127.0.0.0 Safari/537.36" version="24.7.7">
  <diagram name="第 1 页" id="pu3NH_FgWv-jmfec-GzL">
    <mxGraphModel dx="1380" dy="761" grid="1" gridSize="10" guides="1" tooltips="1" connect="1" arrows="1" fold="1" page="1" pageScale="1" pageWidth="827" pageHeight="1169" math="0" shadow="0">
      <root>
        <mxCell id="0" />
        <mxCell id="1" parent="0" />
        <mxCell id="AKeAfYZ9gtmZOaaDrNay-2" value="MqttConfig" style="shape=umlLifeline;perimeter=lifelinePerimeter;whiteSpace=wrap;html=1;container=1;dropTarget=0;collapsible=0;recursiveResize=0;outlineConnect=0;portConstraint=eastwest;newEdgeStyle={&quot;curved&quot;:0,&quot;rounded&quot;:0};" parent="1" vertex="1">
          <mxGeometry x="130" y="90" width="100" height="510" as="geometry" />
        </mxCell>
        <mxCell id="AKeAfYZ9gtmZOaaDrNay-3" value="" style="html=1;points=[[0,0,0,0,5],[0,1,0,0,-5],[1,0,0,0,5],[1,1,0,0,-5]];perimeter=orthogonalPerimeter;outlineConnect=0;targetShapes=umlLifeline;portConstraint=eastwest;newEdgeStyle={&quot;curved&quot;:0,&quot;rounded&quot;:0};" parent="AKeAfYZ9gtmZOaaDrNay-2" vertex="1">
          <mxGeometry x="45" y="60" width="10" height="150" as="geometry" />
        </mxCell>
        <mxCell id="AKeAfYZ9gtmZOaaDrNay-6" value="" style="html=1;points=[[0,0,0,0,5],[0,1,0,0,-5],[1,0,0,0,5],[1,1,0,0,-5]];perimeter=orthogonalPerimeter;outlineConnect=0;targetShapes=umlLifeline;portConstraint=eastwest;newEdgeStyle={&quot;curved&quot;:0,&quot;rounded&quot;:0};" parent="AKeAfYZ9gtmZOaaDrNay-2" vertex="1">
          <mxGeometry x="51" y="115" width="10" height="40" as="geometry" />
        </mxCell>
        <mxCell id="AKeAfYZ9gtmZOaaDrNay-7" value="初始化Mqtt监听客户端" style="html=1;align=left;spacingLeft=2;endArrow=block;rounded=0;edgeStyle=orthogonalEdgeStyle;curved=0;rounded=0;" parent="AKeAfYZ9gtmZOaaDrNay-2" target="AKeAfYZ9gtmZOaaDrNay-6" edge="1">
          <mxGeometry x="-0.3333" y="14" relative="1" as="geometry">
            <mxPoint x="56" y="70" as="sourcePoint" />
            <Array as="points">
              <mxPoint x="86" y="70" />
              <mxPoint x="86" y="135" />
            </Array>
            <mxPoint as="offset" />
          </mxGeometry>
        </mxCell>
        <mxCell id="AKeAfYZ9gtmZOaaDrNay-14" value="" style="html=1;points=[[0,0,0,0,5],[0,1,0,0,-5],[1,0,0,0,5],[1,1,0,0,-5]];perimeter=orthogonalPerimeter;outlineConnect=0;targetShapes=umlLifeline;portConstraint=eastwest;newEdgeStyle={&quot;curved&quot;:0,&quot;rounded&quot;:0};" parent="AKeAfYZ9gtmZOaaDrNay-2" vertex="1">
          <mxGeometry x="45" y="220" width="10" height="120" as="geometry" />
        </mxCell>
        <mxCell id="AKeAfYZ9gtmZOaaDrNay-8" value="并绑定OutputChannel" style="text;html=1;align=center;verticalAlign=middle;resizable=0;points=[];autosize=1;strokeColor=none;fillColor=none;" parent="1" vertex="1">
          <mxGeometry x="220" y="178" width="140" height="30" as="geometry" />
        </mxCell>
        <mxCell id="AKeAfYZ9gtmZOaaDrNay-9" value="&lt;div style=&quot;background-color:#ffffff;color:#080808&quot;&gt;&lt;pre style=&quot;&quot;&gt;&lt;span style=&quot;color: rgb(0, 0, 0);&quot;&gt;&lt;font style=&quot;font-size: 12px;&quot; face=&quot;Helvetica&quot;&gt;MqttReceiveHandler&lt;/font&gt;&lt;/span&gt;&lt;/pre&gt;&lt;/div&gt;" style="shape=umlLifeline;perimeter=lifelinePerimeter;whiteSpace=wrap;html=1;container=1;dropTarget=0;collapsible=0;recursiveResize=0;outlineConnect=0;portConstraint=eastwest;newEdgeStyle={&quot;curved&quot;:0,&quot;rounded&quot;:0};" parent="1" vertex="1">
          <mxGeometry x="360" y="90" width="120" height="510" as="geometry" />
        </mxCell>
        <mxCell id="AKeAfYZ9gtmZOaaDrNay-10" value="" style="html=1;points=[[0,0,0,0,5],[0,1,0,0,-5],[1,0,0,0,5],[1,1,0,0,-5]];perimeter=orthogonalPerimeter;outlineConnect=0;targetShapes=umlLifeline;portConstraint=eastwest;newEdgeStyle={&quot;curved&quot;:0,&quot;rounded&quot;:0};" parent="AKeAfYZ9gtmZOaaDrNay-9" vertex="1">
          <mxGeometry x="55" y="118" width="10" height="92" as="geometry" />
        </mxCell>
        <mxCell id="AKeAfYZ9gtmZOaaDrNay-11" value="" style="html=1;points=[[0,0,0,0,5],[0,1,0,0,-5],[1,0,0,0,5],[1,1,0,0,-5]];perimeter=orthogonalPerimeter;outlineConnect=0;targetShapes=umlLifeline;portConstraint=eastwest;newEdgeStyle={&quot;curved&quot;:0,&quot;rounded&quot;:0};" parent="AKeAfYZ9gtmZOaaDrNay-9" vertex="1">
          <mxGeometry x="60" y="150" width="10" height="40" as="geometry" />
        </mxCell>
        <mxCell id="AKeAfYZ9gtmZOaaDrNay-12" value="初始化监听OutputChannel" style="html=1;align=left;spacingLeft=2;endArrow=block;rounded=0;edgeStyle=orthogonalEdgeStyle;curved=0;rounded=0;" parent="AKeAfYZ9gtmZOaaDrNay-9" target="AKeAfYZ9gtmZOaaDrNay-11" edge="1">
          <mxGeometry relative="1" as="geometry">
            <mxPoint x="65" y="130" as="sourcePoint" />
            <Array as="points">
              <mxPoint x="95" y="160" />
            </Array>
          </mxGeometry>
        </mxCell>
        <mxCell id="AKeAfYZ9gtmZOaaDrNay-16" value="" style="html=1;points=[[0,0,0,0,5],[0,1,0,0,-5],[1,0,0,0,5],[1,1,0,0,-5]];perimeter=orthogonalPerimeter;outlineConnect=0;targetShapes=umlLifeline;portConstraint=eastwest;newEdgeStyle={&quot;curved&quot;:0,&quot;rounded&quot;:0};" parent="AKeAfYZ9gtmZOaaDrNay-9" vertex="1">
          <mxGeometry x="55" y="230" width="10" height="80" as="geometry" />
        </mxCell>
        <mxCell id="AKeAfYZ9gtmZOaaDrNay-13" value="dispatch" style="html=1;verticalAlign=bottom;startArrow=oval;startFill=1;endArrow=block;startSize=8;curved=0;rounded=0;" parent="1" target="AKeAfYZ9gtmZOaaDrNay-14" edge="1">
          <mxGeometry width="60" relative="1" as="geometry">
            <mxPoint x="60" y="330" as="sourcePoint" />
            <mxPoint x="120" y="330" as="targetPoint" />
            <mxPoint as="offset" />
          </mxGeometry>
        </mxCell>
        <mxCell id="AKeAfYZ9gtmZOaaDrNay-15" value="设备上报消息" style="text;html=1;align=center;verticalAlign=middle;resizable=0;points=[];autosize=1;strokeColor=none;fillColor=none;" parent="1" vertex="1">
          <mxGeometry x="70" y="330" width="100" height="30" as="geometry" />
        </mxCell>
        <mxCell id="AKeAfYZ9gtmZOaaDrNay-17" value="dispatch" style="html=1;verticalAlign=bottom;endArrow=block;curved=0;rounded=0;" parent="1" edge="1">
          <mxGeometry width="80" relative="1" as="geometry">
            <mxPoint x="184" y="340" as="sourcePoint" />
            <mxPoint x="414" y="340" as="targetPoint" />
          </mxGeometry>
        </mxCell>
        <mxCell id="AKeAfYZ9gtmZOaaDrNay-18" value="消息被转发至OutputChannel" style="text;html=1;align=center;verticalAlign=middle;resizable=0;points=[];autosize=1;strokeColor=none;fillColor=none;" parent="1" vertex="1">
          <mxGeometry x="200" y="340" width="180" height="30" as="geometry" />
        </mxCell>
        <mxCell id="AKeAfYZ9gtmZOaaDrNay-19" value="&lt;div style=&quot;background-color:#ffffff;color:#080808&quot;&gt;&lt;pre style=&quot;&quot;&gt;&lt;span style=&quot;color: rgb(0, 0, 0);&quot;&gt;&lt;font style=&quot;font-size: 12px;&quot; face=&quot;Helvetica&quot;&gt;MqttReceiveService&lt;/font&gt;&lt;/span&gt;&lt;/pre&gt;&lt;/div&gt;" style="shape=umlLifeline;perimeter=lifelinePerimeter;whiteSpace=wrap;html=1;container=1;dropTarget=0;collapsible=0;recursiveResize=0;outlineConnect=0;portConstraint=eastwest;newEdgeStyle={&quot;curved&quot;:0,&quot;rounded&quot;:0};" parent="1" vertex="1">
          <mxGeometry x="620" y="90" width="120" height="510" as="geometry" />
        </mxCell>
        <mxCell id="AKeAfYZ9gtmZOaaDrNay-20" value="" style="html=1;points=[[0,0,0,0,5],[0,1,0,0,-5],[1,0,0,0,5],[1,1,0,0,-5]];perimeter=orthogonalPerimeter;outlineConnect=0;targetShapes=umlLifeline;portConstraint=eastwest;newEdgeStyle={&quot;curved&quot;:0,&quot;rounded&quot;:0};" parent="AKeAfYZ9gtmZOaaDrNay-19" vertex="1">
          <mxGeometry x="55" y="240" width="10" height="170" as="geometry" />
        </mxCell>
        <mxCell id="AKeAfYZ9gtmZOaaDrNay-21" value="dispatch" style="html=1;verticalAlign=bottom;endArrow=block;curved=0;rounded=0;" parent="1" edge="1">
          <mxGeometry width="80" relative="1" as="geometry">
            <mxPoint x="425" y="344.5" as="sourcePoint" />
            <mxPoint x="675" y="344.5" as="targetPoint" />
          </mxGeometry>
        </mxCell>
        <mxCell id="AKeAfYZ9gtmZOaaDrNay-22" value="解析MqttMessage中的Header与body" style="text;html=1;align=center;verticalAlign=middle;resizable=0;points=[];autosize=1;strokeColor=none;fillColor=none;" parent="1" vertex="1">
          <mxGeometry x="430" y="340" width="220" height="30" as="geometry" />
        </mxCell>
        <mxCell id="AKeAfYZ9gtmZOaaDrNay-23" value="&lt;div style=&quot;background-color:#ffffff;color:#080808&quot;&gt;&lt;pre style=&quot;&quot;&gt;&lt;font style=&quot;font-size: 12px;&quot; face=&quot;Helvetica&quot;&gt;HandlerFactory&lt;/font&gt;&lt;/pre&gt;&lt;/div&gt;" style="shape=umlLifeline;perimeter=lifelinePerimeter;whiteSpace=wrap;html=1;container=1;dropTarget=0;collapsible=0;recursiveResize=0;outlineConnect=0;portConstraint=eastwest;newEdgeStyle={&quot;curved&quot;:0,&quot;rounded&quot;:0};" parent="1" vertex="1">
          <mxGeometry x="827" y="90" width="100" height="510" as="geometry" />
        </mxCell>
        <mxCell id="AKeAfYZ9gtmZOaaDrNay-26" value="" style="html=1;points=[[0,0,0,0,5],[0,1,0,0,-5],[1,0,0,0,5],[1,1,0,0,-5]];perimeter=orthogonalPerimeter;outlineConnect=0;targetShapes=umlLifeline;portConstraint=eastwest;newEdgeStyle={&quot;curved&quot;:0,&quot;rounded&quot;:0};" parent="AKeAfYZ9gtmZOaaDrNay-23" vertex="1">
          <mxGeometry x="45" y="270" width="10" height="80" as="geometry" />
        </mxCell>
        <mxCell id="AKeAfYZ9gtmZOaaDrNay-27" value="dispatch" style="html=1;verticalAlign=bottom;endArrow=block;curved=0;rounded=0;entryX=0;entryY=0;entryDx=0;entryDy=5;" parent="1" source="AKeAfYZ9gtmZOaaDrNay-20" target="AKeAfYZ9gtmZOaaDrNay-26" edge="1">
          <mxGeometry relative="1" as="geometry">
            <mxPoint x="802" y="365" as="sourcePoint" />
          </mxGeometry>
        </mxCell>
        <mxCell id="AKeAfYZ9gtmZOaaDrNay-28" value="return" style="html=1;verticalAlign=bottom;endArrow=open;dashed=1;endSize=8;curved=0;rounded=0;exitX=0;exitY=1;exitDx=0;exitDy=-5;" parent="1" source="AKeAfYZ9gtmZOaaDrNay-26" target="AKeAfYZ9gtmZOaaDrNay-20" edge="1">
          <mxGeometry relative="1" as="geometry">
            <mxPoint x="802" y="435" as="targetPoint" />
          </mxGeometry>
        </mxCell>
        <mxCell id="AKeAfYZ9gtmZOaaDrNay-29" value="进行消息转换，&lt;div&gt;转换为通用的&lt;/div&gt;&lt;div&gt;PointValue格式&lt;/div&gt;" style="text;html=1;align=center;verticalAlign=middle;resizable=0;points=[];autosize=1;strokeColor=none;fillColor=none;" parent="1" vertex="1">
          <mxGeometry x="870" y="370" width="110" height="60" as="geometry" />
        </mxCell>
        <mxCell id="AKeAfYZ9gtmZOaaDrNay-30" value="&lt;div style=&quot;background-color:#ffffff;color:#080808&quot;&gt;&lt;pre style=&quot;&quot;&gt;&lt;span style=&quot;color: rgb(0, 0, 0);&quot;&gt;&lt;font style=&quot;font-size: 12px;&quot; face=&quot;Helvetica&quot;&gt;DriverSenderService&lt;/font&gt;&lt;/span&gt;&lt;/pre&gt;&lt;/div&gt;" style="shape=umlLifeline;perimeter=lifelinePerimeter;whiteSpace=wrap;html=1;container=1;dropTarget=0;collapsible=0;recursiveResize=0;outlineConnect=0;portConstraint=eastwest;newEdgeStyle={&quot;curved&quot;:0,&quot;rounded&quot;:0};" parent="1" vertex="1">
          <mxGeometry x="1020" y="90" width="120" height="520" as="geometry" />
        </mxCell>
        <mxCell id="AKeAfYZ9gtmZOaaDrNay-31" value="" style="html=1;points=[[0,0,0,0,5],[0,1,0,0,-5],[1,0,0,0,5],[1,1,0,0,-5]];perimeter=orthogonalPerimeter;outlineConnect=0;targetShapes=umlLifeline;portConstraint=eastwest;newEdgeStyle={&quot;curved&quot;:0,&quot;rounded&quot;:0};" parent="AKeAfYZ9gtmZOaaDrNay-30" vertex="1">
          <mxGeometry x="55" y="360" width="10" height="90" as="geometry" />
        </mxCell>
        <mxCell id="AKeAfYZ9gtmZOaaDrNay-32" value="将消息转发至RabbitMQ" style="endArrow=open;html=1;endSize=12;startArrow=diamondThin;startSize=14;startFill=1;edgeStyle=orthogonalEdgeStyle;align=left;verticalAlign=bottom;rounded=0;" parent="1" source="AKeAfYZ9gtmZOaaDrNay-20" target="AKeAfYZ9gtmZOaaDrNay-31" edge="1">
          <mxGeometry x="-1" y="3" relative="1" as="geometry">
            <mxPoint x="690" y="470" as="sourcePoint" />
            <mxPoint x="850" y="470" as="targetPoint" />
            <Array as="points">
              <mxPoint x="850" y="460" />
              <mxPoint x="850" y="460" />
            </Array>
          </mxGeometry>
        </mxCell>
        <mxCell id="u6wGByP8QbvHrN2wbtyW-1" value="1" style="endArrow=open;html=1;endSize=12;startArrow=diamondThin;startSize=14;startFill=1;align=left;verticalAlign=bottom;rounded=0;entryX=0;entryY=0.5;entryDx=0;entryDy=0;" edge="1" parent="1" source="AKeAfYZ9gtmZOaaDrNay-31" target="u6wGByP8QbvHrN2wbtyW-2">
          <mxGeometry x="-1" y="3" relative="1" as="geometry">
            <mxPoint x="1080" y="500" as="sourcePoint" />
            <mxPoint x="1150" y="510" as="targetPoint" />
          </mxGeometry>
        </mxCell>
        <mxCell id="u6wGByP8QbvHrN2wbtyW-2" value="" style="ellipse;whiteSpace=wrap;html=1;aspect=fixed;" vertex="1" parent="1">
          <mxGeometry x="1211" y="510" width="30" height="30" as="geometry" />
        </mxCell>
        <mxCell id="u6wGByP8QbvHrN2wbtyW-3" value="发送到指定&lt;span style=&quot;background-color: initial;&quot;&gt;的&lt;/span&gt;&lt;div&gt;&lt;span style=&quot;background-color: initial;&quot;&gt;exchange中&lt;/span&gt;&lt;/div&gt;&lt;div&gt;&lt;span style=&quot;background-color: initial;&quot;&gt;等待消费&lt;/span&gt;&lt;/div&gt;" style="text;html=1;align=center;verticalAlign=middle;resizable=0;points=[];autosize=1;strokeColor=none;fillColor=none;" vertex="1" parent="1">
          <mxGeometry x="1100" y="470" width="100" height="60" as="geometry" />
        </mxCell>
      </root>
    </mxGraphModel>
  </diagram>
</mxfile>
